<?xml version="1.0" standalone="no"?>
<!DOCTYPE svg PUBLIC "-//W3C//DTD SVG 20010904//EN"
 "http://www.w3.org/TR/2001/REC-SVG-20010904/DTD/svg10.dtd">
<svg version="1.0" xmlns="http://www.w3.org/2000/svg"
 width="800.000000pt" height="800.000000pt" viewBox="0 0 800.000000 800.000000"
 preserveAspectRatio="xMidYMid meet">
<metadata>
Created by potrace 1.11, written by Peter Selinger 2001-2013
</metadata>
<g transform="translate(0.000000,800.000000) scale(0.100000,-0.100000)"
fill="#000000" stroke="none">
<path d="M6420 6805 c0 -5 5 -17 10 -25 5 -8 10 -10 10 -5 0 6 -5 17 -10 25
-5 8 -10 11 -10 5z"/>
<path d="M3700 6715 c-473 -59 -911 -240 -1290 -533 -111 -86 -348 -324 -433
-433 -239 -310 -416 -688 -491 -1048 -117 -554 -49 -1143 188 -1636 139 -289
282 -492 506 -716 224 -225 406 -356 685 -495 276 -137 580 -224 889 -255 149
-15 483 -6 619 15 464 75 871 251 1222 530 851 676 1184 1796 844 2831 -45
137 -167 404 -232 509 l-24 38 -6 -173 c-25 -696 -79 -1855 -88 -1904 -15 -80
-50 -153 -104 -213 -25 -28 -45 -55 -45 -60 0 -17 -44 -47 -211 -148 -87 -52
-168 -94 -182 -94 -35 0 -70 31 -117 107 -43 68 -60 128 -43 157 15 27 353
226 383 226 15 0 39 -10 54 -21 15 -12 28 -20 30 -18 14 16 36 74 41 105 3 22
24 462 45 979 22 517 44 1023 49 1125 7 160 7 188 -7 210 -34 55 -323 331
-432 412 -352 263 -730 421 -1177 494 -139 22 -523 27 -673 9z m285 -2255
c-38 -4 -73 -6 -77 -3 -5 2 -8 0 -8 -5 0 -5 -15 -16 -32 -23 -47 -19 -112 -82
-133 -129 -10 -22 -20 -38 -22 -36 -10 9 40 88 78 123 68 64 103 79 188 80
l76 1 -70 -8z m135 -15 c33 -19 21 -19 -21 0 -19 8 -27 14 -19 14 8 0 26 -6
40 -14z m90 -60 c13 -14 21 -25 18 -25 -2 0 -15 11 -28 25 -13 14 -21 25 -18
25 2 0 15 -11 28 -25z m-122 -40 c15 -9 19 -14 10 -11 -13 4 -12 -2 8 -31 26
-38 30 -69 15 -120 -9 -32 6 -79 32 -95 7 -4 8 -8 4 -8 -4 0 -3 -8 2 -19 8
-14 5 -24 -12 -44 -51 -58 -136 -78 -212 -50 l-50 19 2 74 c2 54 -2 81 -13 98
-9 14 -18 50 -21 82 -5 56 -5 58 31 86 19 16 48 32 63 36 40 10 109 1 141 -17z
m202 -80 c0 -5 -5 -3 -10 5 -5 8 -10 20 -10 25 0 6 5 3 10 -5 5 -8 10 -19 10
-25z m-593 -122 c-2 -16 -4 -5 -4 22 0 28 2 40 4 28 2 -13 2 -35 0 -50z m610
-10 c-2 -16 -4 -3 -4 27 0 30 2 43 4 28 2 -16 2 -40 0 -55z m-26 -100 c-12
-20 -14 -14 -5 12 4 9 9 14 11 11 3 -2 0 -13 -6 -23z m-11 -33 c0 -5 -5 -10
-11 -10 -5 0 -7 5 -4 10 3 6 8 10 11 10 2 0 4 -4 4 -10z m-36 -42 c-46 -54
-91 -88 -119 -88 -8 0 -15 -3 -15 -7 0 -5 -35 -9 -78 -10 l-77 -1 70 8 c83 9
149 38 195 85 38 39 53 47 24 13z m-429 -28 c10 -11 16 -20 13 -20 -3 0 -13 9
-23 20 -10 11 -16 20 -13 20 3 0 13 -9 23 -20z m65 -46 c0 -2 -9 0 -20 6 -11
6 -20 13 -20 16 0 2 9 0 20 -6 11 -6 20 -13 20 -16z m590 -124 c-32 -45 -128
-119 -195 -151 -129 -62 -307 -75 -433 -33 -69 23 -60 30 12 9 59 -17 262 -20
272 -3 3 4 14 8 24 8 22 0 83 26 123 53 15 10 34 16 42 13 8 -3 14 0 12 7 -1
7 4 11 11 9 7 -1 15 5 18 13 4 8 12 15 20 15 8 0 14 4 14 9 0 5 9 11 21 14 12
3 18 10 15 15 -3 5 6 14 19 20 14 7 25 16 25 22 0 5 5 10 11 10 6 0 1 -14 -11
-30z m-694 -158 c-5 -4 -66 26 -66 33 0 3 16 -3 35 -12 19 -9 33 -18 31 -21z"/>
<path d="M3890 4000 c0 -5 5 -10 11 -10 5 0 7 5 4 10 -3 6 -8 10 -11 10 -2 0
-4 -4 -4 -10z"/>
<path d="M700 996 c0 -9 4 -16 10 -16 5 0 7 -7 4 -15 -4 -8 1 -17 10 -21 9 -3
14 -10 11 -14 -3 -5 4 -11 15 -15 12 -4 18 -11 14 -18 -5 -8 -2 -8 7 1 18 16
34 15 20 -2 -9 -11 -4 -13 29 -11 22 1 40 0 40 -4 0 -5 2269 -4 6318 1 17 0
32 4 32 9 0 4 7 5 17 2 12 -5 14 -3 8 7 -6 10 -4 12 9 7 10 -4 15 -3 11 3 -3
5 3 18 14 29 11 11 24 33 27 48 l7 28 -30 -32 c-17 -18 -43 -37 -58 -43 -37
-14 -6393 -14 -6430 0 -15 6 -40 24 -56 41 -20 22 -29 26 -29 15z"/>
</g>
</svg>
